<svg width="512" height="631" viewBox="0 0 512 631" fill="none" xmlns="http://www.w3.org/2000/svg">
<path d="M420.961 1.75C446.422 -1.74657 470.713 7.2199 487.637 23.7158C501.963 37.6798 511 57.0301 511 78.7764V553.471C511 575.418 501.698 595.192 486.818 609.066C473.242 621.726 455.026 629.471 435 629.471H77C54.585 629.471 34.4372 619.768 20.5254 604.33C8.38731 590.861 1.00005 573.03 1 553.471V78.7764C1 58.3931 8.93975 40.1165 21.7314 26.4062C38.7107 8.20773 64.2265 -1.93223 91.0391 1.75C142.32 8.79281 205.927 15.8018 256 15.8018C306.073 15.8018 369.68 8.79281 420.961 1.75Z" fill="white" stroke="white" stroke-width="2"/>
</svg>
